<svg xmlns="http://www.w3.org/2000/svg" viewBox="0 0 980 560" font-family="'DM Sans',Segoe UI,sans-serif">
  <defs>
    <style>
      .pine{fill:#1a3c34}.pine2{fill:#2d6a56}.gold{fill:#f5c842}.cream{fill:#f6f3ec}
      .ink{fill:#22302c}.mut{fill:#6b7770}.wht{fill:#ffffff}.line{stroke:#d7cfbf;fill:#fff}
      .h{font-family:'Playfair Display',Georgia,serif}
      .b{font-weight:700}.s{font-size:12px}.xs{font-size:10.5px}
    </style>
  </defs>
  <rect width="980" height="560" fill="#f6f3ec" rx="16"/>
  <text x="40" y="46" class="h b pine" font-size="26">Your daily office check-in</text>
  <rect x="40" y="58" width="64" height="4" class="gold"/>
  <text x="40" y="84" class="mut s">sparkinbounds.eternaops.com/checkin  ·  before 11:00 AM ET, every day</text>

  <!-- arrows -->
  <text x="312" y="320" class="gold b" font-size="34">&#8594;</text>
  <text x="636" y="320" class="gold b" font-size="34">&#8594;</text>

  <!-- ===== Panel 1: Sign in ===== -->
  <g>
    <rect x="40" y="110" width="270" height="410" rx="20" fill="#fff" stroke="#d7cfbf"/>
    <rect x="40" y="110" width="270" height="58" rx="20" class="pine"/>
    <rect x="40" y="140" width="270" height="28" class="pine"/>
    <text x="175" y="146" text-anchor="middle" class="h wht b" font-size="15">Daily Office Check-in</text>
    <circle cx="64" cy="138" r="3" class="gold"/>
    <text x="60" y="200" class="ink xs b">Your work email</text>
    <rect x="60" y="208" width="230" height="34" rx="8" class="line"/>
    <text x="72" y="230" class="mut s">you@goeterna.com</text>
    <text x="60" y="266" class="ink xs b">Your check-in password</text>
    <rect x="60" y="274" width="230" height="34" rx="8" class="line"/>
    <text x="72" y="296" class="mut s">&#8226;&#8226;&#8226;&#8226;&#8226;&#8226;&#8226;&#8226;</text>
    <rect x="60" y="324" width="230" height="40" rx="9" class="gold"/>
    <text x="175" y="349" text-anchor="middle" class="pine b" font-size="14">Sign in</text>
    <text x="60" y="392" class="mut xs">First time? The password you</text>
    <text x="60" y="408" class="mut xs">type becomes your password —</text>
    <text x="60" y="424" class="mut xs">a NEW one, not Dialpad/email.</text>
    <text x="60" y="452" class="pine2 xs b">Forgot password?</text>
    <!-- step badge -->
    <circle cx="60" cy="500" r="13" class="pine"/>
    <text x="60" y="505" text-anchor="middle" class="wht b" font-size="13">1</text>
    <text x="82" y="505" class="ink s b">Sign in</text>
  </g>

  <!-- ===== Panel 2: Photo ===== -->
  <g>
    <rect x="355" y="110" width="270" height="410" rx="20" fill="#fff" stroke="#d7cfbf"/>
    <rect x="355" y="110" width="270" height="58" rx="20" class="pine"/>
    <rect x="355" y="140" width="270" height="28" class="pine"/>
    <text x="490" y="146" text-anchor="middle" class="h wht b" font-size="15">Welcome, Agent!</text>
    <text x="375" y="200" class="ink xs b">Take your check-in photo</text>
    <rect x="375" y="212" width="230" height="150" rx="12" fill="#f2f8f5" stroke="#b9d3c8" stroke-dasharray="6 5"/>
    <circle cx="490" cy="278" r="26" fill="none" stroke="#2d6a56" stroke-width="3"/>
    <circle cx="490" cy="278" r="10" class="pine2"/>
    <rect x="470" y="250" width="40" height="8" rx="3" class="pine2"/>
    <text x="490" y="332" text-anchor="middle" class="pine2 s b">Tap to take a photo</text>
    <rect x="375" y="378" width="230" height="40" rx="9" class="pine"/>
    <text x="490" y="403" text-anchor="middle" class="wht b" font-size="14">Upload &amp; unlock</text>
    <rect x="375" y="432" width="230" height="30" rx="8" class="cream"/>
    <text x="490" y="452" text-anchor="middle" class="ink xs b">Check in before 11:00 AM ET</text>
    <circle cx="375" cy="500" r="13" class="pine"/>
    <text x="375" y="505" text-anchor="middle" class="wht b" font-size="13">2</text>
    <text x="397" y="505" class="ink s b">Photo at the office</text>
  </g>

  <!-- ===== Panel 3: Done ===== -->
  <g>
    <rect x="670" y="110" width="270" height="410" rx="20" fill="#fff" stroke="#d7cfbf"/>
    <rect x="670" y="110" width="270" height="58" rx="20" class="pine"/>
    <rect x="670" y="140" width="270" height="28" class="pine"/>
    <text x="805" y="146" text-anchor="middle" class="h wht b" font-size="15">Checked in</text>
    <circle cx="805" cy="248" r="46" class="cream" stroke="#f5c842" stroke-width="3"/>
    <path d="M783 248 l16 16 l30 -34" fill="none" stroke="#2d6a56" stroke-width="7" stroke-linecap="round" stroke-linejoin="round"/>
    <text x="805" y="330" text-anchor="middle" class="h pine b" font-size="18">You are checked in!</text>
    <text x="805" y="356" text-anchor="middle" class="mut s">You're cleared to go live.</text>
    <rect x="690" y="380" width="230" height="40" rx="9" class="gold"/>
    <text x="805" y="405" text-anchor="middle" class="pine b" font-size="14">View the sales board</text>
    <text x="805" y="446" text-anchor="middle" class="ink xs b">Then join the &#8220;inbound&#8221; Discord</text>
    <text x="805" y="462" text-anchor="middle" class="mut xs">camera ON &#183; off mute</text>
    <circle cx="690" cy="500" r="13" class="pine"/>
    <text x="690" y="505" text-anchor="middle" class="wht b" font-size="13">3</text>
    <text x="712" y="505" class="ink s b">Go live</text>
  </g>
</svg>
