<svg xmlns="http://www.w3.org/2000/svg" viewBox="0 0 1000 620" font-family="'DM Sans',Segoe UI,sans-serif">
  <defs><style>
    .pine{fill:#1a3c34}.pine2{fill:#2d6a56}.gold{fill:#f5c842}.gold2{fill:#b88a1e}.cream{fill:#f6f3ec}
    .ink{fill:#22302c}.mut{fill:#6b7770}.wht{fill:#fff}
    .h{font-family:'Playfair Display',Georgia,serif}.b{font-weight:700}
    .lv{font-size:11px;font-weight:700;fill:#1a3c34;text-anchor:middle}
  </style></defs>
  <rect width="1000" height="620" rx="16" fill="#f6f3ec"/>
  <text x="40" y="46" class="h b pine" font-size="26">Contract Levels — your path to grow</text>
  <rect x="40" y="56" width="70" height="4" class="gold"/>
  <!-- legend -->
  <rect x="40" y="74" width="14" height="14" rx="3" class="pine2"/><text x="60" y="86" class="ink" font-size="12.5">Individual producer (personal production, 70–120)</text>
  <rect x="430" y="74" width="14" height="14" rx="3" class="gold"/><text x="450" y="86" class="ink" font-size="12.5">Agency / team (total hierarchy production, 125–145)</text>

  <line x1="32" y1="560" x2="976" y2="560" stroke="#d7cfbf"/>
  <!-- ascending bars: baseline 560 -->
  <rect x="40"  y="532" width="46" height="28"  rx="4" class="pine2"/><text x="63"  y="524" class="lv">70</text>
  <rect x="99"  y="501" width="46" height="59"  rx="4" class="pine2"/><text x="122" y="493" class="lv">75</text>
  <rect x="158" y="470" width="46" height="90"  rx="4" class="pine2"/><text x="181" y="462" class="lv">80</text>
  <rect x="217" y="439" width="46" height="121" rx="4" class="pine2"/><text x="240" y="431" class="lv">85</text>
  <rect x="276" y="408" width="46" height="152" rx="4" class="pine2"/><text x="299" y="400" class="lv">90</text>
  <rect x="335" y="377" width="46" height="183" rx="4" class="pine2"/><text x="358" y="369" class="lv">95</text>
  <rect x="394" y="346" width="46" height="214" rx="4" class="pine2"/><text x="417" y="338" class="lv">100</text>
  <rect x="453" y="315" width="46" height="245" rx="4" class="pine2"/><text x="476" y="307" class="lv">105</text>
  <rect x="512" y="284" width="46" height="276" rx="4" class="pine2"/><text x="535" y="276" class="lv">110</text>
  <rect x="571" y="253" width="46" height="307" rx="4" class="pine2"/><text x="594" y="245" class="lv">115</text>
  <rect x="630" y="222" width="46" height="338" rx="4" class="pine"/><text x="653" y="214" class="lv">120</text>
  <rect x="689" y="191" width="46" height="369" rx="4" class="gold"/><text x="712" y="183" class="lv">125</text>
  <rect x="748" y="160" width="46" height="400" rx="4" class="gold"/><text x="771" y="152" class="lv">130</text>
  <rect x="807" y="129" width="46" height="431" rx="4" class="gold"/><text x="830" y="121" class="lv">135</text>
  <rect x="866" y="98"  width="46" height="462" rx="4" class="gold"/><text x="889" y="90"  class="lv">140</text>
  <rect x="925" y="67"  width="46" height="493" rx="4" class="gold"/><text x="948" y="59"  class="lv">145</text>

  <!-- milestone callouts -->
  <text x="63" y="578" text-anchor="middle" class="mut" font-size="10.5">Start</text>
  <text x="653" y="578" text-anchor="middle" class="gold2 b" font-size="10.5">$110K personal</text>
  <text x="948" y="578" text-anchor="middle" class="gold2 b" font-size="10.5">$1.75M hierarchy</text>
</svg>
