<svg xmlns="http://www.w3.org/2000/svg" viewBox="0 0 640 640" font-family="'DM Sans',Segoe UI,sans-serif">
  <rect width="640" height="640" fill="#FFFFFF"/>
  <rect x="0" y="0" width="36" height="640" fill="#9BA892"/>
  <path d="M520 0 h120 v640 h-120 a200 200 0 0 0 0 -640 z" fill="#667066" opacity="0.18"/>
  <!-- photo placeholder circle -->
  <circle cx="500" cy="190" r="140" fill="#667066"/>
  <circle cx="500" cy="190" r="140" fill="none" stroke="#9BA892" stroke-width="6"/>
  <text x="500" y="198" text-anchor="middle" fill="#cdd6cc" font-size="13">team photo</text>
  <!-- logo -->
  <g transform="translate(70,52)">
    <circle cx="14" cy="14" r="13" fill="none" stroke="#667066" stroke-width="3"/>
    <circle cx="8" cy="18" r="8" fill="none" stroke="#667066" stroke-width="3"/>
    <circle cx="20" cy="18" r="8" fill="none" stroke="#667066" stroke-width="3"/>
    <text x="40" y="22" font-weight="700" font-size="22" letter-spacing="4" fill="#667066">ETERNA</text>
  </g>
  <text x="70" y="150" font-size="17" font-weight="700" fill="#60584F">Eterna Spark Perks</text>
  <text x="70" y="205" font-family="Georgia,serif" font-size="46" font-weight="800" fill="#26303a">Why join</text>
  <text x="70" y="258" font-family="Georgia,serif" font-size="50" font-weight="800" fill="#DE6600">SPARK?</text>
  <g font-size="16" fill="#3a4038">
    <text x="70" y="330">•  Daily Pay</text>
    <text x="70" y="364">•  Direct access to a Spark Mentor</text>
    <text x="70" y="398">•  Exclusive direct-to-you FRESH leads at $0 cost</text>
    <text x="70" y="432">•  CRM &amp; Kixie provided at $0 cost</text>
    <text x="70" y="466">•  Daily training with our Director of Training,</text>
    <text x="88" y="488">Top Performers &amp; carriers</text>
    <text x="70" y="522">•  Access to a Chargeback Reserve &amp; Retention</text>
    <text x="88" y="544">Specialist to protect your earnings</text>
    <text x="70" y="578">•  Career path to Leadership</text>
  </g>
  <!-- footer CTA -->
  <path d="M70 606 l22 -11 v22 z" fill="#26303a"/>
  <text x="100" y="615" font-size="22" font-weight="800" fill="#DE6600">Apply now</text>
  <rect x="250" y="592" width="320" height="34" rx="6" fill="#60584F"/>
  <text x="410" y="615" text-anchor="middle" font-size="16" font-weight="700" fill="#F5F3EF">www.goeterna.com</text>
</svg>
